# xmcd CD database file
#
# Track frame offsets:
#	182
#	23425
#	45100
#	80535
#	96745
#	134612
#	164597
#	208952
#
# Disc length: 3103 seconds
#
# Revision: 2
# Processed by: cddbd v1.5.2PL0 Copyright (c) Steve Scherf et al.
# Submitted via: CDex 1.51
#
DISCID=6a0c1d08
DTITLE=Niels Thybo Trio - Unexpected
DYEAR=1992
DGENRE=Jazz
TTITLE0=Unexpected
TTITLE1=The Bad Cat
TTITLE2=Jaco
TTITLE3=Likewise
TTITLE4=Eventually
TTITLE5=Chameolation
TTITLE6=Rodgers In My Heart
TTITLE7=Inexpressible
EXTD=YEAR: 1992
EXTT0=
EXTT1=
EXTT2=
EXTT3=
EXTT4=
EXTT5=
EXTT6=
EXTT7=
PLAYORDER=
